<?xml version="1.0" standalone="no"?>
<!DOCTYPE svg PUBLIC "-//W3C//DTD SVG 20010904//EN"
 "http://www.w3.org/TR/2001/REC-SVG-20010904/DTD/svg10.dtd">
<svg version="1.0" xmlns="http://www.w3.org/2000/svg"
 width="403.000000pt" height="403.000000pt" viewBox="0 0 403.000000 403.000000"
 preserveAspectRatio="xMidYMid meet">
<metadata>
Created by potrace 1.11, written by Peter Selinger 2001-2013
</metadata>
<g transform="translate(0.000000,403.000000) scale(0.100000,-0.100000)"
fill="#000000" stroke="none">
<path d="M1226 3999 c-24 -19 -26 -26 -26 -100 l0 -79 -175 0 c-95 0 -196 -5
-224 -11 -57 -12 -133 -57 -156 -93 -16 -23 -35 -132 -50 -281 -3 -33 -8 -71
-10 -85 -2 -14 -7 -54 -10 -90 -7 -66 -12 -108 -20 -170 -2 -19 -7 -64 -11
-100 -3 -36 -8 -73 -9 -82 -2 -9 -6 -45 -10 -80 -3 -35 -10 -97 -15 -138 -5
-41 -12 -102 -15 -135 -4 -33 -8 -71 -10 -85 -2 -14 -6 -50 -10 -80 -3 -30
-10 -89 -15 -130 -5 -41 -12 -100 -15 -130 -3 -30 -7 -71 -10 -90 -2 -19 -7
-59 -11 -89 -3 -30 -7 -61 -9 -70 -1 -9 -6 -52 -10 -95 -4 -43 -8 -87 -10 -97
-2 -10 -7 -49 -10 -86 -4 -37 -8 -75 -10 -83 -2 -8 -7 -46 -11 -85 -3 -38 -8
-78 -9 -87 -7 -34 18 -93 54 -129 36 -36 131 -79 174 -79 12 0 27 -4 34 -8 8
-5 11 -136 11 -494 0 -268 3 -497 7 -510 13 -40 45 -78 86 -98 38 -20 57 -20
1311 -18 l1273 3 32 23 c17 12 42 39 55 60 l23 37 0 499 0 499 50 13 c79 20
101 31 144 69 62 57 70 102 47 290 -4 33 -15 145 -21 215 -3 25 -7 63 -9 85
-3 22 -10 87 -16 145 -6 58 -13 121 -15 140 -2 19 -7 67 -10 105 -3 39 -8 81
-10 95 -2 14 -6 59 -10 100 -4 41 -8 88 -10 103 -2 15 -6 60 -10 100 -3 40 -8
83 -10 97 -2 14 -7 59 -10 100 -3 41 -8 86 -10 100 -2 14 -6 54 -9 90 -3 36
-8 83 -11 105 -3 22 -8 63 -10 90 -2 28 -8 97 -14 155 -6 58 -13 130 -16 160
-7 75 -15 141 -20 165 -2 11 -4 23 -4 27 -2 18 -58 71 -94 89 -77 40 -123 47
-294 49 -92 0 -170 3 -173 6 -2 3 -5 36 -6 72 -1 83 -7 98 -47 112 -29 10 -34
8 -54 -15 -19 -22 -23 -38 -23 -101 l0 -74 -195 0 -195 0 0 78 c0 83 -9 102
-55 115 -46 14 -73 -38 -70 -135 l2 -58 -193 0 -194 0 -1 23 c-1 12 -1 45 -1
72 0 62 -9 79 -48 95 -28 12 -34 11 -53 -9 -18 -18 -23 -36 -25 -101 l-4 -80
-189 0 c-144 0 -189 3 -190 13 -1 6 -2 37 -3 67 -2 72 -11 94 -42 108 -31 15
-27 16 -58 -9z"/>
</g>
</svg>
